<svg id="Layer_1" data-name="Layer 1" xmlns="http://www.w3.org/2000/svg" xmlns:xlink="http://www.w3.org/1999/xlink" viewBox="0 0 8192 1468.2"><defs><style>.cls-1,.cls-6,.cls-7{fill:none;}.cls-2{clip-path:url(#clip-path);}.cls-3{fill:#5c6467;}.cls-4{fill:#626a6c;}.cls-5{clip-path:url(#clip-path-5);}.cls-6{stroke:#fff;stroke-width:0.45px;}.cls-6,.cls-7{stroke-miterlimit:7.19;}.cls-7{stroke:#000;stroke-width:0.09px;}</style><clipPath id="clip-path" transform="translate(0 -287.2)"><rect class="cls-1" x="0.6" y="287.8" width="8190.81" height="1467.01"/></clipPath><clipPath id="clip-path-5" transform="translate(0 -287.2)"><rect class="cls-1" y="287.2" width="8192" height="1468.2"/></clipPath></defs><g class="cls-2"><path class="cls-3" d="M4024.82,303.33a48.73,48.73,0,0,0,4.9,1.37,24.66,24.66,0,0,0-4.9-1.37" transform="translate(0 -287.2)"/><path class="cls-3" d="M3692.32,528.66c.08-.17.12-.3.08-.39-.4.29-.5.45-.08.39" transform="translate(0 -287.2)"/><path class="cls-3" d="M4107.89,541.88a2,2,0,0,0,.78,0,2.55,2.55,0,0,0-.78,0" transform="translate(0 -287.2)"/><path class="cls-3" d="M4156.81,1084.06l-1.79,1.65a14.71,14.71,0,0,0,1.79-1.65" transform="translate(0 -287.2)"/><path class="cls-3" d="M3622.66,551.21a12.1,12.1,0,0,0-1.4,1.94c1-1.09,1.61-1.92,1.38-2" transform="translate(0 -287.2)"/></g><polygon class="cls-4" points="492.64 664.85 545.39 664.85 563.67 729.37 582.23 664.85 634.97 664.85 600.49 764.73 615.52 808.34 660.62 664.85 723.09 664.85 641.15 874.06 593.43 874.06 563.67 799.22 534.19 874.06 486.46 874.06 404.53 664.85 466.72 664.85 512.1 808.34 526.53 764.73 492.64 664.85"/><g class="cls-2"><path class="cls-4" d="M832.11,1056.94a70.71,70.71,0,0,0,2.94,20.49A53.44,53.44,0,0,0,843.9,1095a44.09,44.09,0,0,0,14.87,12.36q9,4.71,21.37,4.73t21.51-4.86a43.52,43.52,0,0,0,14.89-12.67,55.09,55.09,0,0,0,8.54-17.83,75.54,75.54,0,0,0,2.79-20.33,71.4,71.4,0,0,0-2.94-20.49,50.69,50.69,0,0,0-9-17.38,45.69,45.69,0,0,0-15-12.09,46.24,46.24,0,0,0-21.08-4.55q-12.37,0-21.37,4.7a44,44,0,0,0-14.88,12.52,53.25,53.25,0,0,0-8.69,17.7,73.48,73.48,0,0,0-2.79,20.16M879.55,1163q-23.87,0-43.32-9.14a107,107,0,0,1-54.8-58.05,105.35,105.35,0,0,1-7.68-39.48,102.83,102.83,0,0,1,8-39.8A105.42,105.42,0,0,1,804,982.84a108.5,108.5,0,0,1,33.87-23.28,104.56,104.56,0,0,1,42.89-8.69q23.87,0,43.32,9.12a106,106,0,0,1,33.28,24.18,108.26,108.26,0,0,1,21.39,34.18,106.87,106.87,0,0,1,7.51,39.2,101.51,101.51,0,0,1-8,39.62,107.05,107.05,0,0,1-55.85,57,103.23,103.23,0,0,1-42.87,8.85" transform="translate(0 -287.2)"/><path class="cls-4" d="M1113.23,1056.94a70.73,70.73,0,0,0,3,20.49A53.39,53.39,0,0,0,1125,1095a44.16,44.16,0,0,0,14.89,12.36q9,4.71,21.36,4.73t21.51-4.86a43.58,43.58,0,0,0,14.88-12.67,54.89,54.89,0,0,0,8.54-17.83,75.56,75.56,0,0,0,2.81-20.33,71.4,71.4,0,0,0-2.94-20.49,50.65,50.65,0,0,0-9-17.38,45.46,45.46,0,0,0-15-12.09q-9-4.54-21.07-4.55-12.36,0-21.36,4.7a43.86,43.86,0,0,0-14.88,12.52,52.77,52.77,0,0,0-8.69,17.7,73.5,73.5,0,0,0-2.81,20.16m47.44,106.1q-23.88,0-43.32-9.14a106.89,106.89,0,0,1-33.3-24,108.35,108.35,0,0,1-21.51-34,105.14,105.14,0,0,1-7.66-39.48,102.82,102.82,0,0,1,7.95-39.8,105.69,105.69,0,0,1,22.25-33.73A108.47,108.47,0,0,1,1119,959.56a104.37,104.37,0,0,1,42.88-8.69q23.87,0,43.31,9.12a106.47,106.47,0,0,1,33.32,24.18,108.57,108.57,0,0,1,21.37,34.18,106.46,106.46,0,0,1,7.51,39.2,101.54,101.54,0,0,1-7.95,39.62,107,107,0,0,1-55.85,57,103.28,103.28,0,0,1-42.86,8.85" transform="translate(0 -287.2)"/><path class="cls-4" d="M1475.39,1056.37a71.66,71.66,0,0,0-3.24-22.1,49.69,49.69,0,0,0-9.28-17.1,41.8,41.8,0,0,0-14.88-11,47.92,47.92,0,0,0-19.75-4h-23v109h23a46.7,46.7,0,0,0,20-4.13,41.47,41.47,0,0,0,14.88-11.5,50.56,50.56,0,0,0,9.15-17.38,74.06,74.06,0,0,0,3.09-21.79m-127.6,104.88V952.08h80.45q25.93,0,45.66,8.26a94.87,94.87,0,0,1,33,22.39,93.79,93.79,0,0,1,20,33.14,120,120,0,0,1,6.77,40.53q0,23.86-7.52,43.17a93.56,93.56,0,0,1-21.36,33,95.71,95.71,0,0,1-33.28,21.2q-19.41,7.52-43.32,7.51Z" transform="translate(0 -287.2)"/><path class="cls-4" d="M1608.59,1055.19a112.16,112.16,0,0,1,6.62-37.57,104.48,104.48,0,0,1,19.46-33.6,97.72,97.72,0,0,1,31.38-24q18.57-9.12,42.13-9.12,28,0,48,12.67a79.31,79.31,0,0,1,29.78,33l-20.93,13.55a61.16,61.16,0,0,0-11.34-16.8,58.74,58.74,0,0,0-14.44-10.91,62.57,62.57,0,0,0-16-5.86,77.55,77.55,0,0,0-16.21-1.78q-17.4,0-30.81,7.19a71.48,71.48,0,0,0-22.55,18.87A81.86,81.86,0,0,0,1640,1027a97.54,97.54,0,0,0-4.57,29.32,90.52,90.52,0,0,0,5.45,31.38,86.3,86.3,0,0,0,15.18,26.36,73.53,73.53,0,0,0,23,18.27,62.4,62.4,0,0,0,28.87,6.78,72.81,72.81,0,0,0,17-2.07,61.68,61.68,0,0,0,16.64-6.61,71.32,71.32,0,0,0,14.88-11.5,56.1,56.1,0,0,0,11.35-16.65l22.09,12.08a64.81,64.81,0,0,1-14,20.77,87.81,87.81,0,0,1-20.34,15.18,103,103,0,0,1-24,9.44,99.4,99.4,0,0,1-24.75,3.23,83.71,83.71,0,0,1-39.49-9.43,105.06,105.06,0,0,1-31.09-24.61,114.23,114.23,0,0,1-27.54-73.8" transform="translate(0 -287.2)"/><path class="cls-4" d="M1905.63,1062.54H1969a31,31,0,0,0,14.87-3.53,35.4,35.4,0,0,0,11.36-9.57,47.34,47.34,0,0,0,7.38-14,52.17,52.17,0,0,0,2.64-16.53,44.86,44.86,0,0,0-3.1-16.67,49.42,49.42,0,0,0-8.21-13.81,37.74,37.74,0,0,0-12.08-9.42,33.13,33.13,0,0,0-14.6-3.39h-61.57Zm-26.53,98.71V952.08h89.59a56.57,56.57,0,0,1,25.49,5.75,64.06,64.06,0,0,1,20,15.31,73.18,73.18,0,0,1,13.11,21.51,65.36,65.36,0,0,1,4.7,24.28,72.36,72.36,0,0,1-3.08,21.07,65.24,65.24,0,0,1-8.85,18.42,59.41,59.41,0,0,1-13.85,14.14,54,54,0,0,1-18.12,8.54l50.69,80.15h-30.06L1961,1086.11h-55.4v75.14Z" transform="translate(0 -287.2)"/></g><path class="cls-4" d="M2241,1079.34l-37.72-96.64-38.9,96.64Zm-48.91-127.26h22.39l85.47,209.17h-28.3L2246.85,1100H2159l-24.43,61.29h-28.3Z" transform="translate(0 -287.2)"/><polygon class="cls-4" points="2383.88 874.06 2383.88 664.85 2522.08 664.85 2522.08 688.42 2410.41 688.42 2410.41 758.25 2504.41 758.25 2504.41 780.35 2410.41 780.35 2410.41 874.06 2383.88 874.06"/><polygon class="cls-4" points="2762.53 688.42 2690.34 688.42 2690.34 874.06 2663.82 874.06 2663.82 688.42 2591.63 688.42 2591.63 664.85 2762.53 664.85 2762.53 688.42"/><polygon class="cls-4" points="2990.32 850.49 2990.32 874.06 2848.29 874.06 2848.29 664.85 2987.67 664.85 2987.67 688.42 2874.82 688.42 2874.82 756.18 2972.95 756.18 2972.95 778.29 2874.82 778.29 2874.82 850.49 2990.32 850.49"/><g class="cls-2"><path class="cls-4" d="M3109.08,1062.54h63.36a31,31,0,0,0,14.86-3.53,35.43,35.43,0,0,0,11.37-9.57,46.83,46.83,0,0,0,7.36-14,51.91,51.91,0,0,0,2.66-16.53,44.87,44.87,0,0,0-3.11-16.67,49.48,49.48,0,0,0-8.24-13.85,37.57,37.57,0,0,0-12.08-9.41,32.86,32.86,0,0,0-14.6-3.39h-61.58Zm-26.52,98.71V952.08h89.58a56.61,56.61,0,0,1,25.5,5.75,64.05,64.05,0,0,1,20,15.31,73,73,0,0,1,13.12,21.51,65.82,65.82,0,0,1,4.72,24.32,72.28,72.28,0,0,1-3.09,21.07,65,65,0,0,1-8.85,18.42,59.23,59.23,0,0,1-13.85,14.14,54.07,54.07,0,0,1-18.12,8.55l50.69,80.14h-30.06l-47.74-75.13h-55.4v75.09Z" transform="translate(0 -287.2)"/><path class="cls-3" d="M7776.63,1121h8.25V996.41h-8.95V1106.1l-87.41-109.69h-6.81V1121h8.95V1013.26Zm-224.12-8.08v-51.75h63.36v-7.74h-63.36v-49H7625v-8.07h-81.43V1121h83v-8Zm-144.62-108.46h42.47a23.61,23.61,0,0,1,10.78,2.54,30.3,30.3,0,0,1,8.78,6.76,32.26,32.26,0,0,1,6,9.75A30.78,30.78,0,0,1,7478,1035a35.7,35.7,0,0,1-1.84,11.32,30.8,30.8,0,0,1-5.35,9.82,27.69,27.69,0,0,1-8.43,6.94,22.66,22.66,0,0,1-10.88,2.63h-43.7Zm0,116.54v-47h40.36l30.19,47h10.36l-31.07-48.44a32.37,32.37,0,0,0,11.94-4.39,33.67,33.67,0,0,0,9.3-8.42,39,39,0,0,0,6-11.5A42,42,0,0,0,7487,1035a37.9,37.9,0,0,0-2.72-13.95,42.55,42.55,0,0,0-7.54-12.46,37.17,37.17,0,0,0-11.51-8.87,32.09,32.09,0,0,0-14.57-3.33H7399V1121Zm-143-12a37.63,37.63,0,0,1-13.25-12.29,49.8,49.8,0,0,1-7-17.46,99.91,99.91,0,0,1-2-20.19V996.41h-9v62.66a104.29,104.29,0,0,0,2.54,23.16,58.1,58.1,0,0,0,8.63,20.13,44.66,44.66,0,0,0,16.06,14.22q10,5.36,24.92,5.35,14.39,0,24.22-5.1a44,44,0,0,0,15.93-13.8,57.71,57.71,0,0,0,8.87-20.13,103.07,103.07,0,0,0,2.72-23.87V996.41h-8.95v62.66a98.62,98.62,0,0,1-2,19.83,52.9,52.9,0,0,1-6.85,17.55,36.48,36.48,0,0,1-13.16,12.46q-8.34,4.74-21,4.74-12.47,0-20.71-4.65m-158.48,4v-51.76h63.36v-7.76h-63.36v-49h72.49v-8.07H7097.4V1121h83v-8ZM7029.93,1080a50.52,50.52,0,0,1-9.56,17.25,43.25,43.25,0,0,1-15.72,11.5,53.23,53.23,0,0,1-21.67,4.12h-32.47V1004.48H6983a53.37,53.37,0,0,1,21.41,4,44.45,44.45,0,0,1,15.71,11.23,48.84,48.84,0,0,1,9.74,17.11,67.62,67.62,0,0,1,3.33,21.68,68.5,68.5,0,0,1-3.24,21.5m-47,41a64.27,64.27,0,0,0,24.48-4.47,52.86,52.86,0,0,0,18.69-12.64,55.43,55.43,0,0,0,11.85-19.66,75.89,75.89,0,0,0,4.12-25.71,77.47,77.47,0,0,0-3.68-24.13,56.06,56.06,0,0,0-11.06-19.74,52.09,52.09,0,0,0-18.52-13.34q-11.14-4.92-25.88-4.92h-41.42V1121Zm-112.85,0h8.24V996.41h-8.94V1106.1L6782,996.41h-6.84V1121h8.95V1013.26ZM6646,1113v-51.76h63.36v-7.76H6646v-49h72.49v-8.07h-81.44V1121h83v-8Zm-80.38,8h8.25V996.41h-8.95V1106.1l-87.41-109.69h-6.84V1121h8.95V1013.26Zm-166.38,0h8.25V996.41h-9V1106.1l-87.4-109.69h-6.84V1121h8.95V1013.26ZM6240.92,996.41H6232V1121h8.95Zm-100.21,8.07a19.75,19.75,0,0,1,9,2,21.67,21.67,0,0,1,6.92,5.44,26.19,26.19,0,0,1,4.57,7.91,27.13,27.13,0,0,1,1.67,9.57,26.4,26.4,0,0,1-6.59,17.28,24.19,24.19,0,0,1-7.28,5.53,20.66,20.66,0,0,1-9.3,2.11H6094v-49.86ZM6166,1097a29,29,0,0,1-5.18,8.17,24.07,24.07,0,0,1-7.72,5.7,22.61,22.61,0,0,1-9.74,2.11H6094v-51h50.55a20.58,20.58,0,0,1,9.21,2.11,23.74,23.74,0,0,1,7.46,5.7,27.37,27.37,0,0,1,6.67,17.82A24.08,24.08,0,0,1,6166,1097m4.65-28a30.94,30.94,0,0,0-16.94-11.84,28.28,28.28,0,0,0,13.17-11.59,33.13,33.13,0,0,0,4.73-17.37,34.18,34.18,0,0,0-2-11.51,33,33,0,0,0-5.7-10.17,29,29,0,0,0-8.95-7.28,24.71,24.71,0,0,0-11.76-2.82h-58.09V1121h58.27a34.77,34.77,0,0,0,13-2.45,32.94,32.94,0,0,0,10.7-6.86,32.43,32.43,0,0,0,7.19-10.26,30.92,30.92,0,0,0,2.64-12.72,33.08,33.08,0,0,0-6.24-19.75m-295.2-55a18.82,18.82,0,0,1,4.65-6.15,23.44,23.44,0,0,1,7-4.21,23.88,23.88,0,0,1,8.77-1.58q8.78,0,14.38,4.83a15.41,15.41,0,0,1,5.61,12.22q0,8.09-7,14.48a146.43,146.43,0,0,1-18.61,14q-5.08-5.45-8.33-9.4a64.85,64.85,0,0,1-5.07-6.94,20.59,20.59,0,0,1-2.46-5.27,17.6,17.6,0,0,1-.61-4.57,16.76,16.76,0,0,1,1.67-7.36m9.3,100a31.33,31.33,0,0,1-10.17-4.83,26.35,26.35,0,0,1-7.29-8,21.32,21.32,0,0,1-2.81-11.06,25.62,25.62,0,0,1,1.84-9.74,31.78,31.78,0,0,1,5.19-8.42,57.22,57.22,0,0,1,7.63-7.46c2.88-2.34,6-4.68,9.39-7l39.66,41.6a46.5,46.5,0,0,1-14,12,36.66,36.66,0,0,1-18.08,4.47,42.14,42.14,0,0,1-11.32-1.58m76.26,7-22.63-23.51q10.17-16.54,10.53-37.57h-7.73a67.27,67.27,0,0,1-2.11,16.94,62.11,62.11,0,0,1-6,15l-37.57-39q5.61-3.87,10.78-7.64a69.44,69.44,0,0,0,9.13-7.91,35.45,35.45,0,0,0,6.23-8.78,22.4,22.4,0,0,0,2.28-9.92,21.72,21.72,0,0,0-2.11-9.47,22.34,22.34,0,0,0-5.88-7.55,29,29,0,0,0-8.86-5,32.28,32.28,0,0,0-11.06-1.85,34.28,34.28,0,0,0-12.11,2.11,29.68,29.68,0,0,0-9.65,5.79,28.74,28.74,0,0,0-6.41,8.51,23.17,23.17,0,0,0-2.37,10.28,22.41,22.41,0,0,0,1,6.4,30.08,30.08,0,0,0,3.07,6.76,73.43,73.43,0,0,0,5.53,7.81q3.44,4.3,8.34,9.56a130.42,130.42,0,0,0-10.62,7.73,64.21,64.21,0,0,0-8.78,8.51,36.81,36.81,0,0,0-6,9.82,30.53,30.53,0,0,0-2.2,11.68,29.43,29.43,0,0,0,3.16,13.78,32,32,0,0,0,8.63,10.35,39.29,39.29,0,0,0,12.55,6.58,48.4,48.4,0,0,0,14.83,2.29,45.78,45.78,0,0,0,21.41-5,55.71,55.71,0,0,0,16.86-13.42l16,16.67ZM5742.67,996.41H5642.44v8.07h45.64V1121H5697V1004.48h45.64ZM5526.44,1113v-51.76h63.35v-7.76h-63.35v-49h72.48v-8.07h-81.44V1121h83v-8Zm-142.16,8v-38.44l25.44-26.15,50,64.59h10.18l-54.4-70,51.75-54.58h-10.36L5384.26,1072V996.41h-9V1121Zm-144.62-116.52h42.47a23.61,23.61,0,0,1,10.78,2.54,30.48,30.48,0,0,1,8.78,6.76,32.66,32.66,0,0,1,6,9.75,31,31,0,0,1,2.2,11.5,36,36,0,0,1-1.84,11.32,30.87,30.87,0,0,1-5.36,9.83,27.77,27.77,0,0,1-8.42,6.93,22.72,22.72,0,0,1-10.89,2.63h-43.7Zm0,116.54v-47H5280l30.19,47h10.35l-31.06-48.44a32.37,32.37,0,0,0,11.94-4.39,33.67,33.67,0,0,0,9.3-8.42,39,39,0,0,0,6-11.5,42,42,0,0,0,2.11-13.25,37.9,37.9,0,0,0-2.72-13.95,42.55,42.55,0,0,0-7.54-12.46,37.17,37.17,0,0,0-11.51-8.87,32.08,32.08,0,0,0-14.56-3.33h-51.75V1121Zm-142.86-48.44,27.73-65.29,27.2,65.29ZM5067.66,1121h9.65l17.38-41.07h59.5l17.37,41.07H5181l-52.65-124.61h-7.73Zm-109-116.52h41.95a23.71,23.71,0,0,1,10.62,2.46,28.65,28.65,0,0,1,8.78,6.67,32.09,32.09,0,0,1,6,9.74,31.29,31.29,0,0,1,2.2,11.67,36,36,0,0,1-1.85,11.5,31.91,31.91,0,0,1-5.26,9.84,25.7,25.7,0,0,1-8.34,6.84,23.65,23.65,0,0,1-11,2.54h-43Zm0,116.54v-47H5002a31.79,31.79,0,0,0,14.37-3.25,35,35,0,0,0,11.14-8.69,39.91,39.91,0,0,0,7.19-12.46,42.33,42.33,0,0,0,2.55-14.57,37.9,37.9,0,0,0-2.72-13.95,42.37,42.37,0,0,0-7.55-12.46,37,37,0,0,0-11.5-8.87,32.15,32.15,0,0,0-14.57-3.33h-51.25V1121Z" transform="translate(0 -287.2)"/><path class="cls-3" d="M4096,456.27c-311.56,0-565,253.47-565,565s253.47,565,565,565,565-253.47,565-565-253.47-565-565-565m0,1137.06c-315.42,0-572-256.6-572-572s256.61-572,572-572,572,256.6,572,572-256.61,572-572,572" transform="translate(0 -287.2)"/></g><polygon class="cls-3" points="4093.13 694.77 4089.44 685.76 4084.38 698.05 4088.08 707.04 4093.13 694.77"/><polygon class="cls-3" points="4105.48 664.72 4175.42 494.55 4168.02 494.55 4101.78 655.72 4105.48 664.72"/><polygon class="cls-3" points="3940.82 1065.36 3937.11 1056.37 3932.07 1068.65 3935.72 1077.55 3935.81 1077.55 3940.82 1065.36"/><polygon class="cls-3" points="4096.82 685.76 4101.78 673.71 4098.08 664.73 4093.13 676.78 4096.82 685.76"/><polygon class="cls-3" points="3958.3 1022.82 3954.62 1013.83 3949.56 1026.11 3953.25 1035.1 3958.3 1022.82"/><polygon class="cls-3" points="4058.17 779.86 4054.47 770.87 4049.41 783.14 4053.11 792.14 4058.17 779.86"/><polygon class="cls-3" points="4075.64 737.31 4071.95 728.32 4066.9 740.6 4070.59 749.59 4075.64 737.31"/><polygon class="cls-3" points="3967.05 1001.54 3963.34 992.55 3958.3 1004.83 3962 1013.82 3967.05 1001.54"/><polygon class="cls-3" points="4066.9 758.58 4063.2 749.59 4058.17 761.87 4061.85 770.87 4066.9 758.58"/><polygon class="cls-3" points="3949.56 1044.09 3945.86 1035.1 3940.82 1047.37 3944.5 1056.37 3949.56 1044.09"/><polygon class="cls-3" points="4084.39 716.04 4080.69 707.04 4075.64 719.32 4079.35 728.32 4084.39 716.04"/><polygon class="cls-3" points="4049.41 801.13 4045.72 792.14 3975.68 962.55 3979.37 971.54 4049.41 801.13"/><polygon class="cls-3" points="3975.68 980.54 3971.99 971.54 3967.03 983.56 3970.74 992.55 3975.68 980.54"/><polygon class="cls-3" points="4084.47 673.71 4080.79 664.72 4075.73 677.01 4079.43 685.99 4084.47 673.71"/><polygon class="cls-3" points="3958.41 980.54 3954.72 971.54 3949.66 983.82 3953.36 992.81 3958.41 980.54"/><polygon class="cls-3" points="4093.13 652.65 4089.44 643.65 4084.47 655.72 4088.16 664.73 4093.13 652.65"/><polygon class="cls-3" points="4058.25 737.54 4054.56 728.54 4049.5 740.82 4053.2 749.82 4058.25 737.54"/><polygon class="cls-3" points="4049.51 758.82 4045.81 749.83 4040.76 762.1 4044.47 771.1 4049.51 758.82"/><polygon class="cls-3" points="3940.93 1023.08 3937.22 1014.09 3932.18 1026.37 3935.89 1035.37 3940.93 1023.08"/><polygon class="cls-3" points="4096.82 643.65 4158.09 494.55 4150.7 494.55 4093.13 634.66 4096.82 643.65"/><polygon class="cls-3" points="4040.77 780.1 4037.07 771.1 3967.03 941.54 3970.74 950.52 4040.77 780.1"/><polygon class="cls-3" points="3967.05 959.51 3963.34 950.52 3958.41 962.54 3962.09 971.54 3967.05 959.51"/><polygon class="cls-3" points="4075.73 694.98 4072.03 685.99 4066.99 698.28 4070.69 707.27 4075.73 694.98"/><polygon class="cls-3" points="4066.99 716.26 4063.29 707.27 4058.25 719.55 4061.95 728.54 4066.99 716.26"/><polygon class="cls-3" points="3932.18 1044.36 3928.49 1035.37 3923.44 1047.65 3927.13 1056.64 3932.18 1044.36"/><polygon class="cls-3" points="3949.66 1001.81 3945.96 992.82 3940.92 1005.09 3944.63 1014.09 3949.66 1001.81"/><polygon class="cls-3" points="3918.54 1077.55 3923.44 1065.63 3919.74 1056.64 3914.7 1068.92 3918.24 1077.55 3918.54 1077.55"/><polygon class="cls-3" points="4114.22 685.99 4192.9 494.55 4185.51 494.55 4110.52 677.01 4114.22 685.99"/><polygon class="cls-3" points="3958.3 1065.36 3954.62 1056.37 3949.56 1068.64 3953.21 1077.55 3953.3 1077.55 3958.3 1065.36"/><polygon class="cls-3" points="4105.56 707.04 4110.52 694.98 4106.83 686.01 4101.88 698.05 4105.56 707.04"/><polygon class="cls-3" points="4066.9 801.13 4063.2 792.14 4058.17 804.41 4061.86 813.41 4066.9 801.13"/><polygon class="cls-3" points="4084.39 758.58 4080.69 749.59 4075.64 761.87 4079.35 770.87 4084.39 758.58"/><polygon class="cls-3" points="3967.05 1044.1 3963.34 1035.1 3958.3 1047.37 3962.01 1056.37 3967.05 1044.1"/><polygon class="cls-3" points="4075.64 779.86 4071.95 770.87 4066.9 783.14 4070.59 792.14 4075.64 779.86"/><polygon class="cls-3" points="4058.17 822.4 4054.47 813.41 3984.42 983.82 3988.11 992.82 4058.17 822.4"/><polygon class="cls-3" points="3975.79 1022.82 3972.09 1013.82 3967.04 1026.11 3970.74 1035.1 3975.79 1022.82"/><polygon class="cls-3" points="3984.42 1001.81 3980.72 992.81 3975.79 1004.83 3979.49 1013.83 3984.42 1001.81"/><polygon class="cls-3" points="4093.13 737.32 4089.44 728.32 4084.38 740.6 4088.08 749.59 4093.13 737.32"/><polygon class="cls-3" points="4096.82 728.32 4101.87 716.04 4098.18 707.04 4093.13 719.32 4096.82 728.32"/><polygon class="cls-3" points="4075.64 804.41 4079.34 813.41 4084.38 801.13 4080.69 792.14 4075.64 804.41"/><polygon class="cls-3" points="3967.05 1068.64 3970.7 1077.55 3970.78 1077.55 3975.79 1065.36 3972.08 1056.37 3967.05 1068.64"/><polygon class="cls-3" points="4096.82 770.87 4101.87 758.58 4098.17 749.59 4093.13 761.87 4096.82 770.87"/><polygon class="cls-3" points="4089.43 770.87 4084.39 783.14 4088.08 792.13 4093.12 779.86 4089.43 770.87"/><polygon class="cls-3" points="3993.17 1005.09 3996.86 1014.09 4066.9 843.67 4063.2 834.7 3993.17 1005.09"/><polygon class="cls-3" points="4114.31 728.32 4119.27 716.26 4115.56 707.28 4110.62 719.32 4114.31 728.32"/><polygon class="cls-3" points="3984.53 1026.11 3988.23 1035.1 3993.17 1023.08 3989.46 1014.09 3984.53 1026.11"/><polygon class="cls-3" points="4105.56 749.59 4110.62 737.31 4106.92 728.32 4101.88 740.6 4105.56 749.59"/><polygon class="cls-3" points="3975.79 1047.37 3979.47 1056.37 3984.53 1044.09 3980.83 1035.1 3975.79 1047.37"/><polygon class="cls-3" points="4122.97 707.27 4210.39 494.55 4202.99 494.55 4119.27 698.28 4122.97 707.27"/><polygon class="cls-3" points="4066.9 825.7 4070.59 834.68 4075.64 822.4 4071.95 813.41 4066.9 825.7"/><polygon class="cls-3" points="3984.53 1068.64 3988.19 1077.55 3988.27 1077.55 3993.27 1065.36 3989.57 1056.37 3984.53 1068.64"/><polygon class="cls-3" points="4075.64 846.97 4079.34 855.96 4084.38 843.67 4080.69 834.68 4075.64 846.97"/><polygon class="cls-3" points="4105.56 792.14 4110.62 779.86 4106.92 770.87 4101.88 783.14 4105.56 792.14"/><polygon class="cls-3" points="4001.91 1026.37 4005.59 1035.37 4075.64 864.95 4071.95 855.96 4001.91 1026.37"/><polygon class="cls-3" points="3993.27 1047.37 3996.97 1056.37 4001.91 1044.36 3998.21 1035.37 3993.27 1047.37"/><polygon class="cls-3" points="4098.18 792.13 4093.12 804.41 4096.82 813.41 4101.87 801.13 4098.18 792.13"/><polygon class="cls-3" points="4123.06 749.59 4128 737.54 4124.31 728.55 4119.35 740.6 4123.06 749.59"/><polygon class="cls-3" points="4089.43 813.41 4084.38 825.7 4088.08 834.68 4093.12 822.4 4089.43 813.41"/><polygon class="cls-3" points="4114.31 770.87 4119.35 758.58 4115.65 749.59 4110.62 761.87 4114.31 770.87"/><polygon class="cls-3" points="4131.69 728.54 4227.87 494.55 4220.48 494.55 4128 719.55 4131.69 728.54"/><polygon class="cls-3" points="4114.31 813.41 4119.35 801.13 4115.65 792.14 4110.62 804.41 4114.31 813.41"/><polygon class="cls-3" points="4098.18 834.68 4093.12 846.97 4096.82 855.96 4101.87 843.67 4098.18 834.68"/><polygon class="cls-3" points="4123.06 792.14 4128.09 779.86 4124.4 770.87 4119.35 783.14 4123.06 792.14"/><polygon class="cls-3" points="4131.8 770.87 4136.74 758.82 4133.05 749.83 4128.11 761.87 4131.8 770.87"/><polygon class="cls-3" points="4106.92 813.41 4101.88 825.7 4105.56 834.68 4110.62 822.4 4106.92 813.41"/><polygon class="cls-3" points="4140.45 749.83 4245.35 494.55 4237.97 494.55 4136.75 740.82 4140.45 749.83"/><polygon class="cls-3" points="4010.65 1047.65 4014.34 1056.64 4084.38 886.23 4080.69 877.24 4010.65 1047.65"/><polygon class="cls-3" points="4089.43 855.96 4084.39 868.23 4088.08 877.23 4093.12 864.95 4089.43 855.96"/><polygon class="cls-3" points="4002.02 1068.65 4005.67 1077.55 4005.75 1077.55 4010.64 1065.63 4006.95 1056.64 4002.02 1068.65"/><polygon class="cls-3" points="4123.06 834.68 4128.09 822.4 4124.4 813.41 4119.35 825.7 4123.06 834.68"/><polygon class="cls-3" points="4106.92 855.96 4101.88 868.23 4105.56 877.23 4110.62 864.95 4106.92 855.96"/><polygon class="cls-3" points="4098.18 877.23 4093.12 889.51 4096.82 898.51 4101.87 886.23 4098.18 877.23"/><polygon class="cls-3" points="4140.54 792.14 4145.49 780.1 4141.79 771.1 4136.85 783.14 4140.54 792.14"/><polygon class="cls-3" points="4131.8 813.41 4136.84 801.13 4133.15 792.14 4128.11 804.41 4131.8 813.41"/><polygon class="cls-3" points="4149.18 771.1 4262.86 494.55 4255.45 494.55 4145.49 762.1 4149.18 771.1"/><polygon class="cls-3" points="4089.43 898.51 4019.39 1068.92 4022.72 1077.04 4022.53 1077.55 4023.25 1077.55 4093.12 907.5 4089.43 898.51"/><polygon class="cls-3" points="4115.65 834.68 4110.62 846.97 4114.31 855.96 4119.35 843.67 4115.65 834.68"/><polygon class="cls-3" points="4231.55 971.54 4427.59 494.56 4420.18 494.56 4227.85 962.54 4231.55 971.54"/><polygon class="cls-3" points="4222.91 992.55 4227.85 980.54 4224.16 971.54 4219.22 983.56 4222.91 992.55"/><polygon class="cls-3" points="4214.17 1013.82 4219.2 1001.55 4215.52 992.55 4210.48 1004.83 4214.17 1013.82"/><polygon class="cls-3" points="4205.42 1035.1 4210.48 1022.82 4206.76 1013.83 4201.73 1026.11 4205.42 1035.1"/><polygon class="cls-3" points="4198.03 1035.1 4192.98 1047.37 4196.68 1056.37 4201.73 1044.09 4198.03 1035.1"/><polygon class="cls-3" points="4192.98 1065.36 4189.3 1056.37 4184.23 1068.65 4187.9 1077.55 4187.97 1077.55 4192.98 1065.36"/><polygon class="cls-3" points="4170.71 1077.55 4175.61 1065.63 4171.91 1056.64 4166.88 1068.92 4170.41 1077.55 4170.71 1077.55"/><polygon class="cls-3" points="4196.79 1014.08 4201.83 1001.81 4198.14 992.82 4193.1 1005.09 4196.79 1014.08"/><polygon class="cls-3" points="4205.53 992.81 4210.58 980.54 4206.88 971.54 4201.84 983.82 4205.53 992.81"/><polygon class="cls-3" points="4210.58 962.54 4214.27 971.54 4219.22 959.51 4215.51 950.52 4210.58 962.54"/><polygon class="cls-3" points="4189.4 1014.09 4184.36 1026.37 4188.05 1035.37 4193.08 1023.08 4189.4 1014.09"/><polygon class="cls-3" points="4180.65 1035.37 4175.61 1047.65 4179.31 1056.64 4184.36 1044.36 4180.65 1035.37"/><polygon class="cls-3" points="4222.91 950.52 4410.26 494.55 4402.86 494.55 4219.22 941.53 4222.91 950.52"/><polygon class="cls-3" points="4231.65 1013.83 4236.59 1001.81 4232.9 992.81 4227.96 1004.83 4231.65 1013.83"/><polygon class="cls-3" points="4210.48 1065.36 4206.76 1056.37 4201.73 1068.64 4205.38 1077.55 4205.47 1077.55 4210.48 1065.36"/><polygon class="cls-3" points="4240.29 992.82 4445.07 494.56 4437.68 494.56 4236.6 983.82 4240.29 992.82"/><polygon class="cls-3" points="4222.91 1035.1 4227.96 1022.82 4224.26 1013.82 4219.22 1026.11 4222.91 1035.1"/><polygon class="cls-3" points="4214.17 1056.37 4219.2 1044.1 4215.52 1035.1 4210.48 1047.37 4214.17 1056.37"/><polygon class="cls-3" points="4222.88 1077.55 4222.96 1077.55 4227.96 1065.37 4224.27 1056.37 4219.2 1068.64 4222.88 1077.55"/><polygon class="cls-3" points="4231.65 1056.37 4236.69 1044.09 4233 1035.1 4227.96 1047.37 4231.65 1056.37"/><polygon class="cls-3" points="4249.03 1014.09 4462.56 494.55 4455.17 494.55 4245.34 1005.09 4249.03 1014.09"/><polygon class="cls-3" points="4240.39 1035.1 4245.34 1023.08 4241.62 1014.09 4236.69 1026.11 4240.39 1035.1"/><polygon class="cls-3" points="4257.77 1035.37 4480.05 494.55 4472.66 494.55 4254.08 1026.37 4257.77 1035.37"/><polygon class="cls-3" points="4249.13 1056.37 4254.08 1044.36 4250.37 1035.37 4245.45 1047.37 4249.13 1056.37"/><polygon class="cls-3" points="4240.34 1077.55 4240.44 1077.55 4245.45 1065.37 4241.74 1056.37 4236.69 1068.64 4240.34 1077.55"/><polygon class="cls-3" points="4257.84 1077.55 4257.93 1077.55 4262.81 1065.63 4259.13 1056.64 4254.19 1068.65 4257.84 1077.55"/><polygon class="cls-3" points="4266.51 1056.64 4497.53 494.55 4490.15 494.55 4262.82 1047.65 4266.51 1056.64"/><polygon class="cls-3" points="4274.89 1077.04 4274.69 1077.55 4275.4 1077.55 4515.02 494.55 4507.62 494.55 4271.55 1068.92 4274.89 1077.04"/><polygon class="cls-3" points="4206.88 971.54 4210.58 962.54 4140.54 792.15 4136.84 801.13 4206.88 971.54"/><polygon class="cls-3" points="4084.47 655.72 4018.23 494.56 4010.85 494.56 4080.79 664.72 4084.47 655.72"/><polygon class="cls-3" points="4093.13 694.77 4096.82 685.76 4093.13 676.78 4089.44 685.76 4093.13 694.77"/><polygon class="cls-3" points="4088.17 664.72 4084.48 655.72 4080.78 664.72 4084.48 673.71 4088.17 664.72"/><polygon class="cls-3" points="4101.88 716.04 4105.56 707.04 4101.88 698.05 4098.18 707.04 4101.88 716.04"/><polygon class="cls-3" points="4110.62 737.31 4114.3 728.32 4110.62 719.32 4106.92 728.32 4110.62 737.31"/><polygon class="cls-3" points="4119.35 758.58 4123.06 749.59 4119.35 740.6 4115.67 749.59 4119.35 758.58"/><polygon class="cls-3" points="4128.11 779.86 4131.79 770.87 4128.11 761.87 4124.4 770.87 4128.11 779.86"/><polygon class="cls-3" points="4136.85 801.13 4140.54 792.14 4136.85 783.14 4133.15 792.14 4136.85 801.13"/><polygon class="cls-3" points="4219.22 1001.54 4222.91 992.55 4219.22 983.56 4215.52 992.55 4219.22 1001.54"/><polygon class="cls-3" points="4210.58 980.54 4214.27 971.54 4210.58 962.54 4206.88 971.54 4210.58 980.54"/><polygon class="cls-3" points="4227.96 1022.82 4231.65 1013.83 4227.96 1004.83 4224.26 1013.82 4227.96 1022.82"/><polygon class="cls-3" points="4236.69 1044.09 4240.39 1035.1 4236.69 1026.11 4233 1035.1 4236.69 1044.09"/><polygon class="cls-3" points="4245.45 1065.36 4249.13 1056.37 4245.45 1047.37 4241.74 1056.37 4245.45 1065.36"/><polygon class="cls-3" points="4257.84 1077.55 4254.19 1068.65 4250.54 1077.55 4257.84 1077.55"/><polygon class="cls-3" points="4093.13 634.66 4035.56 494.55 4028.16 494.55 4089.44 643.65 4093.13 634.66"/><polygon class="cls-3" points="4215.52 950.52 4219.2 941.53 4149.18 771.1 4145.49 780.1 4215.52 950.52"/><polygon class="cls-3" points="4105.48 664.72 4101.78 655.72 4098.08 664.72 4101.78 673.71 4105.48 664.72"/><polygon class="cls-3" points="4096.82 643.65 4093.13 634.66 4089.44 643.65 4093.13 652.65 4096.82 643.65"/><polygon class="cls-3" points="4114.22 685.99 4110.52 677.01 4106.84 685.99 4110.52 694.98 4114.22 685.99"/><polygon class="cls-3" points="4122.97 707.27 4119.27 698.28 4115.56 707.27 4119.27 716.26 4122.97 707.27"/><polygon class="cls-3" points="4131.69 728.54 4128 719.55 4124.31 728.54 4128 737.54 4131.69 728.54"/><polygon class="cls-3" points="4140.45 749.83 4136.75 740.82 4133.05 749.82 4136.75 758.82 4140.45 749.83"/><polygon class="cls-3" points="4149.18 771.1 4145.49 762.1 4141.79 771.1 4145.49 780.1 4149.18 771.1"/><polygon class="cls-3" points="4231.55 971.54 4227.85 962.54 4224.16 971.54 4227.85 980.54 4231.55 971.54"/><polygon class="cls-3" points="4219.22 959.51 4222.91 950.52 4219.22 941.53 4215.52 950.52 4219.22 959.51"/><polygon class="cls-3" points="4240.29 992.82 4236.6 983.82 4232.9 992.81 4236.6 1001.81 4240.29 992.82"/><polygon class="cls-3" points="4249.03 1014.09 4245.34 1005.09 4241.65 1014.09 4245.34 1023.08 4249.03 1014.09"/><polygon class="cls-3" points="4257.77 1035.37 4254.08 1026.37 4250.38 1035.37 4254.08 1044.36 4257.77 1035.37"/><polygon class="cls-3" points="4266.51 1056.64 4262.82 1047.65 4259.12 1056.64 4262.82 1065.63 4266.51 1056.64"/><polygon class="cls-3" points="4274.89 1077.04 4271.55 1068.92 4268.02 1077.55 4274.69 1077.55 4274.89 1077.04"/><polygon class="cls-3" points="4075.73 677.01 4000.74 494.55 3993.36 494.55 4072.03 685.99 4075.73 677.01"/><polygon class="cls-3" points="4198.14 992.82 4201.83 983.82 4131.8 813.42 4128.09 822.42 4198.14 992.82"/><polygon class="cls-3" points="4088.08 707.04 4084.39 698.05 4080.69 707.04 4084.39 716.04 4088.08 707.04"/><polygon class="cls-3" points="4079.43 685.99 4075.73 677.01 4072.03 685.99 4075.73 694.98 4079.43 685.99"/><polygon class="cls-3" points="4093.13 737.32 4096.82 728.32 4093.13 719.32 4089.44 728.32 4093.13 737.32"/><polygon class="cls-3" points="4101.88 758.58 4105.56 749.59 4101.88 740.6 4098.17 749.59 4101.88 758.58"/><polygon class="cls-3" points="4110.62 779.86 4114.3 770.87 4110.62 761.87 4106.92 770.87 4110.62 779.86"/><polygon class="cls-3" points="4119.35 801.13 4123.06 792.14 4119.35 783.14 4115.67 792.14 4119.35 801.13"/><polygon class="cls-3" points="4128.11 822.4 4131.79 813.41 4128.11 804.41 4124.4 813.41 4128.11 822.4"/><polygon class="cls-3" points="4210.48 1022.82 4214.16 1013.82 4210.48 1004.83 4206.76 1013.83 4210.48 1022.82"/><polygon class="cls-3" points="4201.84 1001.81 4205.53 992.81 4201.84 983.82 4198.14 992.82 4201.84 1001.81"/><polygon class="cls-3" points="4219.22 1044.1 4222.91 1035.1 4219.22 1026.11 4215.52 1035.1 4219.22 1044.1"/><polygon class="cls-3" points="4227.96 1065.36 4231.65 1056.37 4227.96 1047.37 4224.26 1056.37 4227.96 1065.36"/><polygon class="cls-3" points="4240.34 1077.55 4236.69 1068.64 4233.03 1077.55 4240.34 1077.55"/><polygon class="cls-3" points="4189.4 1014.09 4193.08 1005.09 4123.07 834.7 4119.35 843.68 4189.4 1014.09"/><polygon class="cls-3" points="4066.99 698.28 3983.25 494.55 3975.86 494.55 4063.29 707.27 4066.99 698.28"/><polygon class="cls-3" points="4079.35 728.32 4075.64 719.32 4071.95 728.32 4075.64 737.31 4079.35 728.32"/><polygon class="cls-3" points="4070.69 707.27 4066.99 698.28 4063.29 707.27 4066.99 716.26 4070.69 707.27"/><polygon class="cls-3" points="4088.08 749.59 4084.39 740.6 4080.69 749.59 4084.39 758.58 4088.08 749.59"/><polygon class="cls-3" points="4093.13 779.86 4096.82 770.87 4093.13 761.87 4089.44 770.87 4093.13 779.86"/><polygon class="cls-3" points="4101.88 801.13 4105.56 792.14 4101.88 783.14 4098.18 792.13 4101.88 801.13"/><polygon class="cls-3" points="4110.62 822.4 4114.3 813.41 4110.62 804.41 4106.92 813.41 4110.62 822.4"/><polygon class="cls-3" points="4119.35 843.67 4123.06 834.68 4119.35 825.7 4115.67 834.68 4119.35 843.67"/><polygon class="cls-3" points="4201.73 1044.09 4205.42 1035.1 4201.73 1026.11 4198.03 1035.1 4201.73 1044.09"/><polygon class="cls-3" points="4193.1 1023.08 4196.78 1014.09 4193.1 1005.09 4189.4 1014.09 4193.1 1023.08"/><polygon class="cls-3" points="4210.48 1065.36 4214.16 1056.37 4210.48 1047.37 4206.76 1056.37 4210.48 1065.36"/><polygon class="cls-3" points="4222.88 1077.55 4219.2 1068.64 4215.55 1077.55 4222.88 1077.55"/><polygon class="cls-3" points="4058.25 719.55 3965.78 494.55 3958.37 494.55 4054.56 728.54 4058.25 719.55"/><polygon class="cls-3" points="4114.31 855.96 4110.62 864.95 4180.65 1035.37 4184.34 1026.37 4114.31 855.96"/><polygon class="cls-3" points="4070.59 749.59 4066.9 740.6 4063.2 749.59 4066.9 758.58 4070.59 749.59"/><polygon class="cls-3" points="4061.95 728.54 4058.25 719.55 4054.56 728.54 4058.25 737.54 4061.95 728.54"/><polygon class="cls-3" points="4079.35 770.87 4075.64 761.87 4071.95 770.87 4075.64 779.86 4079.35 770.87"/><polygon class="cls-3" points="4080.69 792.14 4084.38 801.13 4088.07 792.13 4084.38 783.14 4080.69 792.14"/><polygon class="cls-3" points="4089.43 813.41 4093.12 822.4 4096.82 813.41 4093.12 804.41 4089.43 813.41"/><polygon class="cls-3" points="4101.88 825.7 4098.18 834.68 4101.88 843.67 4105.56 834.68 4101.88 825.7"/><polygon class="cls-3" points="4110.62 846.97 4106.92 855.96 4110.62 864.95 4114.3 855.96 4110.62 846.97"/><polygon class="cls-3" points="4192.98 1047.37 4189.3 1056.37 4192.98 1065.37 4196.68 1056.37 4192.98 1047.37"/><polygon class="cls-3" points="4184.36 1026.37 4180.65 1035.37 4184.36 1044.37 4188.04 1035.37 4184.36 1026.37"/><polygon class="cls-3" points="4198.07 1077.55 4205.38 1077.55 4201.73 1068.64 4198.07 1077.55"/><polygon class="cls-3" points="4105.56 877.23 4101.88 886.23 4171.91 1056.64 4175.61 1047.65 4105.56 877.23"/><polygon class="cls-3" points="4049.51 740.82 3948.28 494.55 3940.9 494.55 4045.81 749.83 4049.51 740.82"/><polygon class="cls-3" points="4061.86 770.87 4058.17 761.87 4054.46 770.87 4058.17 779.86 4061.86 770.87"/><polygon class="cls-3" points="4053.2 749.82 4049.51 740.82 4045.81 749.83 4049.51 758.82 4053.2 749.82"/><polygon class="cls-3" points="4070.59 792.14 4066.9 783.14 4063.2 792.14 4066.9 801.13 4070.59 792.14"/><polygon class="cls-3" points="4071.95 813.41 4075.64 822.4 4079.34 813.41 4075.64 804.41 4071.95 813.41"/><polygon class="cls-3" points="4080.69 834.68 4084.38 843.67 4088.07 834.68 4084.38 825.7 4080.69 834.68"/><polygon class="cls-3" points="4089.43 855.96 4093.12 864.95 4096.82 855.96 4093.12 846.97 4089.43 855.96"/><polygon class="cls-3" points="4101.88 868.23 4098.18 877.23 4101.88 886.23 4105.56 877.23 4101.88 868.23"/><polygon class="cls-3" points="4180.58 1077.55 4187.89 1077.55 4184.23 1068.65 4180.58 1077.55"/><polygon class="cls-3" points="4175.61 1047.65 4171.91 1056.64 4175.61 1065.63 4179.3 1056.64 4175.61 1047.65"/><polygon class="cls-3" points="4163.53 1077.04 4166.87 1068.92 4096.82 898.51 4093.13 907.5 4163.01 1077.55 4163.73 1077.55 4163.53 1077.04"/><polygon class="cls-3" points="4040.77 762.1 3930.8 494.55 3923.41 494.55 4037.07 771.1 4040.77 762.1"/><polygon class="cls-3" points="4053.11 792.14 4049.41 783.14 4045.72 792.14 4049.41 801.13 4053.11 792.14"/><polygon class="cls-3" points="4044.47 771.1 4040.77 762.1 4037.07 771.1 4040.77 780.1 4044.47 771.1"/><polygon class="cls-3" points="4061.86 813.41 4058.17 804.41 4054.47 813.41 4058.17 822.4 4061.86 813.41"/><polygon class="cls-3" points="4063.2 834.68 4066.9 843.67 4070.59 834.68 4066.9 825.7 4063.2 834.68"/><polygon class="cls-3" points="4071.95 855.96 4075.64 864.95 4079.34 855.96 4075.64 846.97 4071.95 855.96"/><polygon class="cls-3" points="4080.69 877.23 4084.38 886.23 4088.07 877.23 4084.38 868.23 4080.69 877.23"/><polygon class="cls-3" points="4089.43 898.51 4093.12 907.5 4096.82 898.51 4093.12 889.51 4089.43 898.51"/><polygon class="cls-3" points="4166.87 1068.92 4163.53 1077.04 4163.73 1077.55 4170.41 1077.55 4166.87 1068.92"/><polygon class="cls-3" points="3958.41 962.54 3766.06 494.55 3758.66 494.55 3954.72 971.54 3958.41 962.54"/><polygon class="cls-3" points="3970.74 992.55 3967.05 983.56 3963.34 992.55 3967.05 1001.55 3970.74 992.55"/><polygon class="cls-3" points="3962.11 971.54 3958.41 962.54 3954.7 971.54 3958.41 980.54 3962.11 971.54"/><polygon class="cls-3" points="3979.49 1013.83 3975.79 1004.83 3972.09 1013.82 3975.79 1022.82 3979.49 1013.83"/><polygon class="cls-3" points="3980.84 1035.1 3984.53 1044.09 3988.23 1035.1 3984.53 1026.11 3980.84 1035.1"/><polygon class="cls-3" points="3989.57 1056.37 3993.27 1065.36 3996.96 1056.37 3993.27 1047.37 3989.57 1056.37"/><polygon class="cls-3" points="4005.67 1077.55 4002.01 1068.65 3998.36 1077.55 4005.67 1077.55"/><polygon class="cls-3" points="3967.05 941.53 3783.38 494.55 3776 494.55 3963.34 950.52 3967.05 941.53"/><polygon class="cls-3" points="3979.37 971.54 3975.68 962.54 3971.98 971.54 3975.68 980.54 3979.37 971.54"/><polygon class="cls-3" points="3970.74 950.52 3967.05 941.53 3963.34 950.52 3967.05 959.51 3970.74 950.52"/><polygon class="cls-3" points="3988.11 992.82 3984.43 983.82 3980.73 992.81 3984.43 1001.81 3988.11 992.82"/><polygon class="cls-3" points="3989.47 1014.09 3993.16 1023.08 3996.87 1014.09 3993.16 1005.09 3989.47 1014.09"/><polygon class="cls-3" points="3998.21 1035.37 4001.91 1044.36 4005.59 1035.37 4001.91 1026.37 3998.21 1035.37"/><polygon class="cls-3" points="4006.95 1056.64 4010.64 1065.63 4014.34 1056.64 4010.64 1047.65 4006.95 1056.64"/><polygon class="cls-3" points="4022.53 1077.55 4022.72 1077.04 4019.39 1068.92 4015.84 1077.55 4022.53 1077.55"/><polygon class="cls-3" points="3949.66 983.82 3748.58 494.56 3741.19 494.56 3945.96 992.82 3949.66 983.82"/><polygon class="cls-3" points="3962 1013.82 3958.3 1004.83 3954.61 1013.83 3958.3 1022.82 3962 1013.82"/><polygon class="cls-3" points="3953.36 992.81 3949.66 983.82 3945.97 992.82 3949.66 1001.81 3953.36 992.81"/><polygon class="cls-3" points="3970.74 1035.1 3967.05 1026.11 3963.34 1035.1 3967.05 1044.1 3970.74 1035.1"/><polygon class="cls-3" points="3972.09 1056.37 3975.78 1065.36 3979.49 1056.37 3975.78 1047.37 3972.09 1056.37"/><polygon class="cls-3" points="3988.19 1077.55 3984.53 1068.64 3980.88 1077.55 3988.19 1077.55"/><polygon class="cls-3" points="3940.93 1005.09 3731.09 494.56 3723.7 494.56 3937.22 1014.09 3940.93 1005.09"/><polygon class="cls-3" points="3953.25 1035.1 3949.57 1026.11 3945.86 1035.1 3949.56 1044.09 3953.25 1035.1"/><polygon class="cls-3" points="3944.63 1014.09 3940.94 1005.09 3937.23 1014.09 3940.94 1023.08 3944.63 1014.09"/><polygon class="cls-3" points="3962 1056.37 3958.3 1047.37 3954.62 1056.37 3958.3 1065.36 3962 1056.37"/><polygon class="cls-3" points="3963.39 1077.55 3970.7 1077.55 3967.05 1068.64 3963.39 1077.55"/><polygon class="cls-3" points="3932.18 1026.37 3713.61 494.55 3706.22 494.55 3928.49 1035.37 3932.18 1026.37"/><polygon class="cls-3" points="3944.51 1056.37 3940.82 1047.37 3937.11 1056.37 3940.82 1065.36 3944.51 1056.37"/><polygon class="cls-3" points="3935.88 1035.37 3932.18 1026.37 3928.49 1035.37 3932.18 1044.36 3935.88 1035.37"/><polygon class="cls-3" points="3945.91 1077.55 3953.21 1077.55 3949.57 1068.64 3945.91 1077.55"/><polygon class="cls-3" points="3923.44 1047.65 3696.12 494.55 3688.73 494.55 3919.74 1056.64 3923.44 1047.65"/><polygon class="cls-3" points="3928.42 1077.55 3935.72 1077.55 3932.06 1068.65 3928.42 1077.55"/><polygon class="cls-3" points="3927.13 1056.64 3923.44 1047.65 3919.74 1056.64 3923.44 1065.63 3927.13 1056.64"/><polygon class="cls-3" points="3911.36 1077.04 3914.7 1068.92 3678.62 494.55 3671.24 494.55 3910.85 1077.55 3911.56 1077.55 3911.36 1077.04"/><polygon class="cls-3" points="3914.7 1068.92 3911.36 1077.04 3911.56 1077.55 3918.24 1077.55 3914.7 1068.92"/><polygon class="cls-3" points="4015.55 1077.55 4015.69 1077.92 4015.84 1077.55 4015.55 1077.55"/><polygon class="cls-3" points="3998.28 1077.55 3998.31 1077.65 3998.36 1077.55 3998.28 1077.55"/><polygon class="cls-3" points="4267.71 1077.55 4267.87 1077.92 4268.02 1077.55 4267.71 1077.55"/><polygon class="cls-3" points="3945.81 1077.55 3945.86 1077.65 3945.91 1077.55 3945.81 1077.55"/><polygon class="cls-3" points="4197.99 1077.55 4198.03 1077.65 4198.06 1077.55 4197.99 1077.55"/><polygon class="cls-3" points="3928.33 1077.55 3928.37 1077.65 3928.42 1077.55 3928.33 1077.55"/><polygon class="cls-3" points="4180.49 1077.55 4180.55 1077.65 4180.58 1077.55 4180.49 1077.55"/><polygon class="cls-3" points="4250.44 1077.55 4250.49 1077.65 4250.54 1077.55 4250.44 1077.55"/><polygon class="cls-3" points="4232.95 1077.55 4233 1077.65 4233.03 1077.55 4232.95 1077.55"/><polygon class="cls-3" points="3963.32 1077.55 3963.34 1077.65 3963.39 1077.55 3963.32 1077.55"/><polygon class="cls-3" points="4215.48 1077.55 4215.52 1077.65 4215.56 1077.55 4215.48 1077.55"/><polygon class="cls-3" points="3980.79 1077.55 3980.84 1077.65 3980.88 1077.55 3980.79 1077.55"/><polygon class="cls-3" points="3935.72 1077.55 3935.76 1077.65 3935.81 1077.55 3935.72 1077.55"/><polygon class="cls-3" points="3918.24 1077.55 3918.4 1077.92 3918.54 1077.55 3918.24 1077.55"/><polygon class="cls-3" points="3953.21 1077.55 3953.25 1077.65 3953.3 1077.55 3953.21 1077.55"/><polygon class="cls-3" points="3970.7 1077.55 3970.74 1077.65 3970.78 1077.55 3970.7 1077.55"/><polygon class="cls-3" points="3988.18 1077.55 3988.23 1077.65 3988.27 1077.55 3988.18 1077.55"/><polygon class="cls-3" points="4005.67 1077.55 4005.72 1077.65 4005.75 1077.55 4005.67 1077.55"/><polygon class="cls-3" points="4187.9 1077.55 4187.93 1077.65 4187.97 1077.55 4187.9 1077.55"/><polygon class="cls-3" points="4170.41 1077.55 4170.56 1077.92 4170.71 1077.55 4170.41 1077.55"/><polygon class="cls-3" points="4205.38 1077.55 4205.42 1077.65 4205.47 1077.55 4205.38 1077.55"/><polygon class="cls-3" points="4222.88 1077.55 4222.91 1077.65 4222.96 1077.55 4222.88 1077.55"/><polygon class="cls-3" points="4240.34 1077.55 4240.39 1077.65 4240.44 1077.55 4240.34 1077.55"/><polygon class="cls-3" points="4257.84 1077.55 4257.88 1077.65 4257.93 1077.55 4257.84 1077.55"/><g class="cls-2"><path class="cls-3" d="M4096,472.51c-302.61,0-548.79,246.19-548.79,548.79s246.18,548.8,548.79,548.8,548.82-246.2,548.82-548.8S4398.64,472.51,4096,472.51m0,1104.59c-306.47,0-555.8-249.33-555.8-555.8S3789.56,465.5,4096,465.5s555.76,249.33,555.76,555.8S4402.47,1577.1,4096,1577.1" transform="translate(0 -287.2)"/></g><g class="cls-5"><path class="cls-6" d="M8171,1744.62v10.78M8171,298V287.2M21,1744.62v10.78M21,298V287.2M8181.22,1734.43H8192m-8181.22,0H0M8181.22,308.17H8192m-8181.22,0H0" transform="translate(0 -287.2)"/><path class="cls-7" d="M8171,1744.62v10.78M8171,298V287.2M21,1744.62v10.78M21,298V287.2M8181.22,1734.43H8192m-8181.22,0H0M8181.22,308.17H8192m-8181.22,0H0" transform="translate(0 -287.2)"/></g></svg>